<?xml version="1.0" encoding="utf-8" standalone="no"?>
<!DOCTYPE svg PUBLIC "-//W3C//DTD SVG 1.1//EN"
  "http://www.w3.org/Graphics/SVG/1.1/DTD/svg11.dtd">
<!-- Created with matplotlib (https://matplotlib.org/) -->
<svg height="338.4pt" version="1.1" viewBox="0 0 451.038322 338.4" width="451.038322pt" xmlns="http://www.w3.org/2000/svg" xmlns:xlink="http://www.w3.org/1999/xlink">
 <metadata>
  <rdf:RDF xmlns:cc="http://creativecommons.org/ns#" xmlns:dc="http://purl.org/dc/elements/1.1/" xmlns:rdf="http://www.w3.org/1999/02/22-rdf-syntax-ns#">
   <cc:Work>
    <dc:type rdf:resource="http://purl.org/dc/dcmitype/StillImage"/>
    <dc:date>2023-03-17T18:30:32.383036</dc:date>
    <dc:format>image/svg+xml</dc:format>
    <dc:creator>
     <cc:Agent>
      <dc:title>Matplotlib v3.3.4, https://matplotlib.org/</dc:title>
     </cc:Agent>
    </dc:creator>
   </cc:Work>
  </rdf:RDF>
 </metadata>
 <defs>
  <style type="text/css">*{stroke-linecap:butt;stroke-linejoin:round;}</style>
 </defs>
 <g id="figure_1">
  <g id="patch_1">
   <path d="M 0 338.4 
L 451.038322 338.4 
L 451.038322 0 
L 0 0 
z
" style="fill:#ffffff;"/>
  </g>
  <g id="axes_1">
   <g id="patch_2">
    <path d="M 11.017937 331.2 
L 443.838322 331.2 
L 443.838322 7.2 
L 11.017937 7.2 
z
" style="fill:#ffffff;"/>
   </g>
   <g id="matplotlib.axis_1">
    <g id="xtick_1">
     <g id="line2d_1">
      <defs>
       <path d="M 0 0 
L 0 3.5 
" id="m375ae05f8a" style="stroke:#000000;stroke-width:0.8;"/>
      </defs>
      <g>
       <use style="stroke:#000000;stroke-width:0.8;" x="19.341406" xlink:href="#m375ae05f8a" y="169.2"/>
      </g>
     </g>
     <g id="text_1">
      <!-- −1.5 -->
      <g transform="translate(7.2 183.798438)scale(0.1 -0.1)">
       <defs>
        <path d="M 10.59375 35.5 
L 73.1875 35.5 
L 73.1875 27.203125 
L 10.59375 27.203125 
z
" id="DejaVuSans-8722"/>
        <path d="M 12.40625 8.296875 
L 28.515625 8.296875 
L 28.515625 63.921875 
L 10.984375 60.40625 
L 10.984375 69.390625 
L 28.421875 72.90625 
L 38.28125 72.90625 
L 38.28125 8.296875 
L 54.390625 8.296875 
L 54.390625 0 
L 12.40625 0 
z
" id="DejaVuSans-49"/>
        <path d="M 10.6875 12.40625 
L 21 12.40625 
L 21 0 
L 10.6875 0 
z
" id="DejaVuSans-46"/>
        <path d="M 10.796875 72.90625 
L 49.515625 72.90625 
L 49.515625 64.59375 
L 19.828125 64.59375 
L 19.828125 46.734375 
Q 21.96875 47.46875 24.109375 47.828125 
Q 26.265625 48.1875 28.421875 48.1875 
Q 40.625 48.1875 47.75 41.5 
Q 54.890625 34.8125 54.890625 23.390625 
Q 54.890625 11.625 47.5625 5.09375 
Q 40.234375 -1.421875 26.90625 -1.421875 
Q 22.3125 -1.421875 17.546875 -0.640625 
Q 12.796875 0.140625 7.71875 1.703125 
L 7.71875 11.625 
Q 12.109375 9.234375 16.796875 8.0625 
Q 21.484375 6.890625 26.703125 6.890625 
Q 35.15625 6.890625 40.078125 11.328125 
Q 45.015625 15.765625 45.015625 23.390625 
Q 45.015625 31 40.078125 35.4375 
Q 35.15625 39.890625 26.703125 39.890625 
Q 22.75 39.890625 18.8125 39.015625 
Q 14.890625 38.140625 10.796875 36.28125 
z
" id="DejaVuSans-53"/>
       </defs>
       <use xlink:href="#DejaVuSans-8722"/>
       <use x="83.789062" xlink:href="#DejaVuSans-49"/>
       <use x="147.412109" xlink:href="#DejaVuSans-46"/>
       <use x="179.199219" xlink:href="#DejaVuSans-53"/>
      </g>
     </g>
    </g>
    <g id="xtick_2">
     <g id="line2d_2">
      <g>
       <use style="stroke:#000000;stroke-width:0.8;" x="88.703647" xlink:href="#m375ae05f8a" y="169.2"/>
      </g>
     </g>
     <g id="text_2">
      <!-- −1.0 -->
      <g transform="translate(76.562241 183.798438)scale(0.1 -0.1)">
       <defs>
        <path d="M 31.78125 66.40625 
Q 24.171875 66.40625 20.328125 58.90625 
Q 16.5 51.421875 16.5 36.375 
Q 16.5 21.390625 20.328125 13.890625 
Q 24.171875 6.390625 31.78125 6.390625 
Q 39.453125 6.390625 43.28125 13.890625 
Q 47.125 21.390625 47.125 36.375 
Q 47.125 51.421875 43.28125 58.90625 
Q 39.453125 66.40625 31.78125 66.40625 
z
M 31.78125 74.21875 
Q 44.046875 74.21875 50.515625 64.515625 
Q 56.984375 54.828125 56.984375 36.375 
Q 56.984375 17.96875 50.515625 8.265625 
Q 44.046875 -1.421875 31.78125 -1.421875 
Q 19.53125 -1.421875 13.0625 8.265625 
Q 6.59375 17.96875 6.59375 36.375 
Q 6.59375 54.828125 13.0625 64.515625 
Q 19.53125 74.21875 31.78125 74.21875 
z
" id="DejaVuSans-48"/>
       </defs>
       <use xlink:href="#DejaVuSans-8722"/>
       <use x="83.789062" xlink:href="#DejaVuSans-49"/>
       <use x="147.412109" xlink:href="#DejaVuSans-46"/>
       <use x="179.199219" xlink:href="#DejaVuSans-48"/>
      </g>
     </g>
    </g>
    <g id="xtick_3">
     <g id="line2d_3">
      <g>
       <use style="stroke:#000000;stroke-width:0.8;" x="158.065888" xlink:href="#m375ae05f8a" y="169.2"/>
      </g>
     </g>
     <g id="text_3">
      <!-- −0.5 -->
      <g transform="translate(145.924482 183.798438)scale(0.1 -0.1)">
       <use xlink:href="#DejaVuSans-8722"/>
       <use x="83.789062" xlink:href="#DejaVuSans-48"/>
       <use x="147.412109" xlink:href="#DejaVuSans-46"/>
       <use x="179.199219" xlink:href="#DejaVuSans-53"/>
      </g>
     </g>
    </g>
    <g id="xtick_4">
     <g id="line2d_4">
      <g>
       <use style="stroke:#000000;stroke-width:0.8;" x="227.42813" xlink:href="#m375ae05f8a" y="169.2"/>
      </g>
     </g>
    </g>
    <g id="xtick_5">
     <g id="line2d_5">
      <g>
       <use style="stroke:#000000;stroke-width:0.8;" x="296.790371" xlink:href="#m375ae05f8a" y="169.2"/>
      </g>
     </g>
     <g id="text_4">
      <!-- 0.5 -->
      <g transform="translate(288.838808 183.798438)scale(0.1 -0.1)">
       <use xlink:href="#DejaVuSans-48"/>
       <use x="63.623047" xlink:href="#DejaVuSans-46"/>
       <use x="95.410156" xlink:href="#DejaVuSans-53"/>
      </g>
     </g>
    </g>
    <g id="xtick_6">
     <g id="line2d_6">
      <g>
       <use style="stroke:#000000;stroke-width:0.8;" x="366.152612" xlink:href="#m375ae05f8a" y="169.2"/>
      </g>
     </g>
     <g id="text_5">
      <!-- 1.0 -->
      <g transform="translate(358.201049 183.798438)scale(0.1 -0.1)">
       <use xlink:href="#DejaVuSans-49"/>
       <use x="63.623047" xlink:href="#DejaVuSans-46"/>
       <use x="95.410156" xlink:href="#DejaVuSans-48"/>
      </g>
     </g>
    </g>
    <g id="xtick_7">
     <g id="line2d_7">
      <g>
       <use style="stroke:#000000;stroke-width:0.8;" x="435.514853" xlink:href="#m375ae05f8a" y="169.2"/>
      </g>
     </g>
     <g id="text_6">
      <!-- 1.5 -->
      <g transform="translate(427.56329 183.798438)scale(0.1 -0.1)">
       <use xlink:href="#DejaVuSans-49"/>
       <use x="63.623047" xlink:href="#DejaVuSans-46"/>
       <use x="95.410156" xlink:href="#DejaVuSans-53"/>
      </g>
     </g>
    </g>
    <g id="xtick_8">
     <g id="line2d_8">
      <defs>
       <path d="M 0 0 
L 0 2 
" id="m464a295ce2" style="stroke:#000000;stroke-width:0.6;"/>
      </defs>
      <g>
       <use style="stroke:#000000;stroke-width:0.6;" x="33.213854" xlink:href="#m464a295ce2" y="169.2"/>
      </g>
     </g>
    </g>
    <g id="xtick_9">
     <g id="line2d_9">
      <g>
       <use style="stroke:#000000;stroke-width:0.6;" x="47.086303" xlink:href="#m464a295ce2" y="169.2"/>
      </g>
     </g>
    </g>
    <g id="xtick_10">
     <g id="line2d_10">
      <g>
       <use style="stroke:#000000;stroke-width:0.6;" x="60.958751" xlink:href="#m464a295ce2" y="169.2"/>
      </g>
     </g>
    </g>
    <g id="xtick_11">
     <g id="line2d_11">
      <g>
       <use style="stroke:#000000;stroke-width:0.6;" x="74.831199" xlink:href="#m464a295ce2" y="169.2"/>
      </g>
     </g>
    </g>
    <g id="xtick_12">
     <g id="line2d_12">
      <g>
       <use style="stroke:#000000;stroke-width:0.6;" x="102.576096" xlink:href="#m464a295ce2" y="169.2"/>
      </g>
     </g>
    </g>
    <g id="xtick_13">
     <g id="line2d_13">
      <g>
       <use style="stroke:#000000;stroke-width:0.6;" x="116.448544" xlink:href="#m464a295ce2" y="169.2"/>
      </g>
     </g>
    </g>
    <g id="xtick_14">
     <g id="line2d_14">
      <g>
       <use style="stroke:#000000;stroke-width:0.6;" x="130.320992" xlink:href="#m464a295ce2" y="169.2"/>
      </g>
     </g>
    </g>
    <g id="xtick_15">
     <g id="line2d_15">
      <g>
       <use style="stroke:#000000;stroke-width:0.6;" x="144.19344" xlink:href="#m464a295ce2" y="169.2"/>
      </g>
     </g>
    </g>
    <g id="xtick_16">
     <g id="line2d_16">
      <g>
       <use style="stroke:#000000;stroke-width:0.6;" x="171.938337" xlink:href="#m464a295ce2" y="169.2"/>
      </g>
     </g>
    </g>
    <g id="xtick_17">
     <g id="line2d_17">
      <g>
       <use style="stroke:#000000;stroke-width:0.6;" x="185.810785" xlink:href="#m464a295ce2" y="169.2"/>
      </g>
     </g>
    </g>
    <g id="xtick_18">
     <g id="line2d_18">
      <g>
       <use style="stroke:#000000;stroke-width:0.6;" x="199.683233" xlink:href="#m464a295ce2" y="169.2"/>
      </g>
     </g>
    </g>
    <g id="xtick_19">
     <g id="line2d_19">
      <g>
       <use style="stroke:#000000;stroke-width:0.6;" x="213.555681" xlink:href="#m464a295ce2" y="169.2"/>
      </g>
     </g>
    </g>
    <g id="xtick_20">
     <g id="line2d_20">
      <g>
       <use style="stroke:#000000;stroke-width:0.6;" x="241.300578" xlink:href="#m464a295ce2" y="169.2"/>
      </g>
     </g>
    </g>
    <g id="xtick_21">
     <g id="line2d_21">
      <g>
       <use style="stroke:#000000;stroke-width:0.6;" x="255.173026" xlink:href="#m464a295ce2" y="169.2"/>
      </g>
     </g>
    </g>
    <g id="xtick_22">
     <g id="line2d_22">
      <g>
       <use style="stroke:#000000;stroke-width:0.6;" x="269.045474" xlink:href="#m464a295ce2" y="169.2"/>
      </g>
     </g>
    </g>
    <g id="xtick_23">
     <g id="line2d_23">
      <g>
       <use style="stroke:#000000;stroke-width:0.6;" x="282.917923" xlink:href="#m464a295ce2" y="169.2"/>
      </g>
     </g>
    </g>
    <g id="xtick_24">
     <g id="line2d_24">
      <g>
       <use style="stroke:#000000;stroke-width:0.6;" x="310.662819" xlink:href="#m464a295ce2" y="169.2"/>
      </g>
     </g>
    </g>
    <g id="xtick_25">
     <g id="line2d_25">
      <g>
       <use style="stroke:#000000;stroke-width:0.6;" x="324.535267" xlink:href="#m464a295ce2" y="169.2"/>
      </g>
     </g>
    </g>
    <g id="xtick_26">
     <g id="line2d_26">
      <g>
       <use style="stroke:#000000;stroke-width:0.6;" x="338.407715" xlink:href="#m464a295ce2" y="169.2"/>
      </g>
     </g>
    </g>
    <g id="xtick_27">
     <g id="line2d_27">
      <g>
       <use style="stroke:#000000;stroke-width:0.6;" x="352.280164" xlink:href="#m464a295ce2" y="169.2"/>
      </g>
     </g>
    </g>
    <g id="xtick_28">
     <g id="line2d_28">
      <g>
       <use style="stroke:#000000;stroke-width:0.6;" x="380.02506" xlink:href="#m464a295ce2" y="169.2"/>
      </g>
     </g>
    </g>
    <g id="xtick_29">
     <g id="line2d_29">
      <g>
       <use style="stroke:#000000;stroke-width:0.6;" x="393.897508" xlink:href="#m464a295ce2" y="169.2"/>
      </g>
     </g>
    </g>
    <g id="xtick_30">
     <g id="line2d_30">
      <g>
       <use style="stroke:#000000;stroke-width:0.6;" x="407.769957" xlink:href="#m464a295ce2" y="169.2"/>
      </g>
     </g>
    </g>
    <g id="xtick_31">
     <g id="line2d_31">
      <g>
       <use style="stroke:#000000;stroke-width:0.6;" x="421.642405" xlink:href="#m464a295ce2" y="169.2"/>
      </g>
     </g>
    </g>
   </g>
   <g id="matplotlib.axis_2">
    <g id="ytick_1">
     <g id="line2d_32">
      <defs>
       <path d="M 0 0 
L -3.5 0 
" id="m58b3f62f9d" style="stroke:#000000;stroke-width:0.8;"/>
      </defs>
      <g>
       <use style="stroke:#000000;stroke-width:0.8;" x="227.42813" xlink:href="#m58b3f62f9d" y="292.276923"/>
      </g>
     </g>
     <g id="text_7">
      <!-- −4 -->
      <g transform="translate(205.685942 296.076142)scale(0.1 -0.1)">
       <defs>
        <path d="M 37.796875 64.3125 
L 12.890625 25.390625 
L 37.796875 25.390625 
z
M 35.203125 72.90625 
L 47.609375 72.90625 
L 47.609375 25.390625 
L 58.015625 25.390625 
L 58.015625 17.1875 
L 47.609375 17.1875 
L 47.609375 0 
L 37.796875 0 
L 37.796875 17.1875 
L 4.890625 17.1875 
L 4.890625 26.703125 
z
" id="DejaVuSans-52"/>
       </defs>
       <use xlink:href="#DejaVuSans-8722"/>
       <use x="83.789062" xlink:href="#DejaVuSans-52"/>
      </g>
     </g>
    </g>
    <g id="ytick_2">
     <g id="line2d_33">
      <g>
       <use style="stroke:#000000;stroke-width:0.8;" x="227.42813" xlink:href="#m58b3f62f9d" y="230.738462"/>
      </g>
     </g>
     <g id="text_8">
      <!-- −2 -->
      <g transform="translate(205.685942 234.53768)scale(0.1 -0.1)">
       <defs>
        <path d="M 19.1875 8.296875 
L 53.609375 8.296875 
L 53.609375 0 
L 7.328125 0 
L 7.328125 8.296875 
Q 12.9375 14.109375 22.625 23.890625 
Q 32.328125 33.6875 34.8125 36.53125 
Q 39.546875 41.84375 41.421875 45.53125 
Q 43.3125 49.21875 43.3125 52.78125 
Q 43.3125 58.59375 39.234375 62.25 
Q 35.15625 65.921875 28.609375 65.921875 
Q 23.96875 65.921875 18.8125 64.3125 
Q 13.671875 62.703125 7.8125 59.421875 
L 7.8125 69.390625 
Q 13.765625 71.78125 18.9375 73 
Q 24.125 74.21875 28.421875 74.21875 
Q 39.75 74.21875 46.484375 68.546875 
Q 53.21875 62.890625 53.21875 53.421875 
Q 53.21875 48.921875 51.53125 44.890625 
Q 49.859375 40.875 45.40625 35.40625 
Q 44.1875 33.984375 37.640625 27.21875 
Q 31.109375 20.453125 19.1875 8.296875 
z
" id="DejaVuSans-50"/>
       </defs>
       <use xlink:href="#DejaVuSans-8722"/>
       <use x="83.789062" xlink:href="#DejaVuSans-50"/>
      </g>
     </g>
    </g>
    <g id="ytick_3">
     <g id="line2d_34">
      <g>
       <use style="stroke:#000000;stroke-width:0.8;" x="227.42813" xlink:href="#m58b3f62f9d" y="169.2"/>
      </g>
     </g>
    </g>
    <g id="ytick_4">
     <g id="line2d_35">
      <g>
       <use style="stroke:#000000;stroke-width:0.8;" x="227.42813" xlink:href="#m58b3f62f9d" y="107.661538"/>
      </g>
     </g>
     <g id="text_9">
      <!-- 2 -->
      <g transform="translate(214.06563 111.460757)scale(0.1 -0.1)">
       <use xlink:href="#DejaVuSans-50"/>
      </g>
     </g>
    </g>
    <g id="ytick_5">
     <g id="line2d_36">
      <g>
       <use style="stroke:#000000;stroke-width:0.8;" x="227.42813" xlink:href="#m58b3f62f9d" y="46.123077"/>
      </g>
     </g>
     <g id="text_10">
      <!-- 4 -->
      <g transform="translate(214.06563 49.922296)scale(0.1 -0.1)">
       <use xlink:href="#DejaVuSans-52"/>
      </g>
     </g>
    </g>
    <g id="ytick_6">
     <g id="line2d_37">
      <defs>
       <path d="M 0 0 
L -2 0 
" id="m6b74242b92" style="stroke:#000000;stroke-width:0.6;"/>
      </defs>
      <g>
       <use style="stroke:#000000;stroke-width:0.6;" x="227.42813" xlink:href="#m6b74242b92" y="323.046154"/>
      </g>
     </g>
    </g>
    <g id="ytick_7">
     <g id="line2d_38">
      <g>
       <use style="stroke:#000000;stroke-width:0.6;" x="227.42813" xlink:href="#m6b74242b92" y="307.661538"/>
      </g>
     </g>
    </g>
    <g id="ytick_8">
     <g id="line2d_39">
      <g>
       <use style="stroke:#000000;stroke-width:0.6;" x="227.42813" xlink:href="#m6b74242b92" y="276.892308"/>
      </g>
     </g>
    </g>
    <g id="ytick_9">
     <g id="line2d_40">
      <g>
       <use style="stroke:#000000;stroke-width:0.6;" x="227.42813" xlink:href="#m6b74242b92" y="261.507692"/>
      </g>
     </g>
    </g>
    <g id="ytick_10">
     <g id="line2d_41">
      <g>
       <use style="stroke:#000000;stroke-width:0.6;" x="227.42813" xlink:href="#m6b74242b92" y="246.123077"/>
      </g>
     </g>
    </g>
    <g id="ytick_11">
     <g id="line2d_42">
      <g>
       <use style="stroke:#000000;stroke-width:0.6;" x="227.42813" xlink:href="#m6b74242b92" y="215.353846"/>
      </g>
     </g>
    </g>
    <g id="ytick_12">
     <g id="line2d_43">
      <g>
       <use style="stroke:#000000;stroke-width:0.6;" x="227.42813" xlink:href="#m6b74242b92" y="199.969231"/>
      </g>
     </g>
    </g>
    <g id="ytick_13">
     <g id="line2d_44">
      <g>
       <use style="stroke:#000000;stroke-width:0.6;" x="227.42813" xlink:href="#m6b74242b92" y="184.584615"/>
      </g>
     </g>
    </g>
    <g id="ytick_14">
     <g id="line2d_45">
      <g>
       <use style="stroke:#000000;stroke-width:0.6;" x="227.42813" xlink:href="#m6b74242b92" y="153.815385"/>
      </g>
     </g>
    </g>
    <g id="ytick_15">
     <g id="line2d_46">
      <g>
       <use style="stroke:#000000;stroke-width:0.6;" x="227.42813" xlink:href="#m6b74242b92" y="138.430769"/>
      </g>
     </g>
    </g>
    <g id="ytick_16">
     <g id="line2d_47">
      <g>
       <use style="stroke:#000000;stroke-width:0.6;" x="227.42813" xlink:href="#m6b74242b92" y="123.046154"/>
      </g>
     </g>
    </g>
    <g id="ytick_17">
     <g id="line2d_48">
      <g>
       <use style="stroke:#000000;stroke-width:0.6;" x="227.42813" xlink:href="#m6b74242b92" y="92.276923"/>
      </g>
     </g>
    </g>
    <g id="ytick_18">
     <g id="line2d_49">
      <g>
       <use style="stroke:#000000;stroke-width:0.6;" x="227.42813" xlink:href="#m6b74242b92" y="76.892308"/>
      </g>
     </g>
    </g>
    <g id="ytick_19">
     <g id="line2d_50">
      <g>
       <use style="stroke:#000000;stroke-width:0.6;" x="227.42813" xlink:href="#m6b74242b92" y="61.507692"/>
      </g>
     </g>
    </g>
    <g id="ytick_20">
     <g id="line2d_51">
      <g>
       <use style="stroke:#000000;stroke-width:0.6;" x="227.42813" xlink:href="#m6b74242b92" y="30.738462"/>
      </g>
     </g>
    </g>
    <g id="ytick_21">
     <g id="line2d_52">
      <g>
       <use style="stroke:#000000;stroke-width:0.6;" x="227.42813" xlink:href="#m6b74242b92" y="15.353846"/>
      </g>
     </g>
    </g>
   </g>
   <g id="line2d_53">
    <path clip-path="url(#p7779b83e65)" d="M 19.341406 13.430769 
L 23.69337 26.058782 
L 27.289975 35.901963 
L 31.23496 46.105196 
L 35.198291 55.754468 
L 39.28531 65.099029 
L 43.620463 74.367177 
L 47.511263 82.145405 
L 51.295691 89.242064 
L 54.793653 95.407143 
L 59.030913 102.389639 
L 62.899959 108.321314 
L 66.696494 113.748967 
L 70.419262 118.710518 
L 74.615263 123.895235 
L 78.279784 128.087115 
L 82.521666 132.568456 
L 86.527997 136.454638 
L 90.658099 140.128465 
L 94.453049 143.223225 
L 98.307061 146.106347 
L 102.599526 149.027457 
L 106.548919 151.461755 
L 111.418718 154.152059 
L 115.450571 156.137444 
L 119.895289 158.091161 
L 124.846426 160.000085 
L 129.633544 161.600878 
L 134.817641 163.088541 
L 139.597997 164.256001 
L 144.87414 165.341163 
L 149.235513 166.094245 
L 155.542933 166.981487 
L 162.157038 167.692047 
L 169.823989 168.285215 
L 177.237398 168.672772 
L 186.1003 168.957632 
L 198.958945 169.145424 
L 222.155166 169.199936 
L 259.290405 169.114373 
L 272.401717 168.860113 
L 283.349044 168.387541 
L 292.186946 167.738833 
L 299.281155 166.985455 
L 304.804735 166.221875 
L 311.292021 165.090356 
L 317.355491 163.766601 
L 321.788991 162.613241 
L 327.760186 160.780951 
L 332.436476 159.098184 
L 336.43058 157.471317 
L 341.296123 155.232751 
L 346.0046 152.775269 
L 350.778161 149.96637 
L 355.31306 146.978075 
L 359.624115 143.826683 
L 363.604906 140.629596 
L 367.349974 137.354632 
L 370.899152 133.998517 
L 375.08904 129.702796 
L 378.868072 125.50156 
L 383.145137 120.35182 
L 387.296734 114.930362 
L 390.931112 109.824551 
L 394.95714 103.756837 
L 398.697729 97.713289 
L 402.425363 91.283593 
L 406.235513 84.272962 
L 410.243532 76.398431 
L 414.416009 67.63174 
L 418.243334 59.057204 
L 421.816443 50.572659 
L 425.572204 41.135563 
L 429.63161 30.313928 
L 433.533497 19.279372 
L 435.514853 13.430769 
L 435.514853 13.430769 
" style="fill:none;stroke:#0000ff;stroke-linecap:square;stroke-width:2;"/>
   </g>
   <g id="line2d_54">
    <path clip-path="url(#p7779b83e65)" d="M 19.341406 324.969231 
L 23.223316 313.666812 
L 27.259564 302.579073 
L 31.086531 292.667735 
L 34.889547 283.376117 
L 39.257939 273.361562 
L 43.152257 265.002775 
L 47.262882 256.736318 
L 51.396342 248.975326 
L 55.59503 241.632167 
L 58.917755 236.190121 
L 62.768446 230.273569 
L 66.291249 225.212376 
L 70.310696 219.829274 
L 74.088047 215.133227 
L 78.161544 210.443411 
L 82.208652 206.149083 
L 85.736292 202.687561 
L 89.916261 198.907419 
L 93.806005 195.686079 
L 98.02671 192.494874 
L 102.474684 189.453363 
L 106.13145 187.184561 
L 110.789773 184.576934 
L 115.383393 182.293931 
L 119.463515 180.488336 
L 124.271353 178.607955 
L 128.590593 177.128515 
L 133.441043 175.683014 
L 138.635433 174.36432 
L 143.84839 173.254229 
L 150.835882 172.059193 
L 155.994281 171.363318 
L 163.808994 170.560991 
L 172.823692 169.938611 
L 182.385191 169.541988 
L 192.461169 169.324204 
L 209.394314 169.208787 
L 253.794152 169.24015 
L 268.384822 169.433778 
L 279.114034 169.792915 
L 287.477607 170.280292 
L 293.267001 170.761111 
L 301.111407 171.64895 
L 306.964405 172.524797 
L 312.920454 173.638259 
L 318.739349 174.975649 
L 322.873774 176.094911 
L 328.261137 177.788456 
L 333.483959 179.710959 
L 338.280085 181.745201 
L 343.469858 184.264716 
L 347.227954 186.313109 
L 351.803735 189.081311 
L 356.307594 192.121291 
L 359.730722 194.655264 
L 363.987238 198.092617 
L 368.012476 201.652791 
L 372.325176 205.822022 
L 376.360063 210.074787 
L 379.537805 213.676597 
L 384.00513 219.136265 
L 387.368057 223.566549 
L 391.257413 229.050849 
L 394.940472 234.617123 
L 398.708475 240.704654 
L 402.292268 246.879639 
L 406.183295 254.027876 
L 409.657574 260.817491 
L 413.412034 268.604406 
L 417.736801 278.177916 
L 421.736852 287.633175 
L 425.917357 298.159088 
L 429.545843 307.850581 
L 433.225755 318.22723 
L 435.514853 324.969231 
L 435.514853 324.969231 
" style="fill:none;stroke:#ff0000;stroke-linecap:square;stroke-width:2;"/>
   </g>
   <g id="patch_3">
    <path d="M 227.42813 331.2 
L 227.42813 7.2 
" style="fill:none;stroke:#000000;stroke-linecap:square;stroke-linejoin:miter;stroke-width:0.8;"/>
   </g>
   <g id="patch_4">
    <path d="M 11.017937 169.2 
L 443.838322 169.2 
" style="fill:none;stroke:#000000;stroke-linecap:square;stroke-linejoin:miter;stroke-width:0.8;"/>
   </g>
  </g>
 </g>
 <defs>
  <clipPath id="p7779b83e65">
   <rect height="324" width="432.820385" x="11.017937" y="7.2"/>
  </clipPath>
 </defs>
</svg>
